# xmcd
# 
# Track frame offsets:
#	150
#	12176
#	25373
#	36452
#	47474
#	60270
#	73103
#	84822
#	97114
#	109723
#	127083
#	137985
#
# Disc length: 1990 seconds
#
# Revision: 1
# Processed by: cddbd v1.4PL0 Copyright (c) Steve Scherf et al.
# Submitted via: Audio-CD-Archiv 2.10.446
#
DISCID=a007c40c
DTITLE=Neil Diamond - Portrait CD2
DYEAR=1900
DGENRE=blues
TTITLE0=Red Red Wine
TTITLE1=Girl, You'll Be A Woman Soon
TTITLE2=Kentucky Woman
TTITLE3=Red Rubber Ball
TTITLE4=You'll Forget
TTITLE5=hanky Panky
TTITLE6=Solitary Man
TTITLE7=Cherry Cherry
TTITLE8=The Boat That I Row
TTITLE9=Shilo
TTITLE10=Some day Baby
TTITLE11=The Long Way Home
EXTD=
EXTT0=
EXTT1=
EXTT2=
EXTT3=
EXTT4=
EXTT5=
EXTT6=
EXTT7=
EXTT8=
EXTT9=
EXTT10=
EXTT11=
PLAYORDER=
